HIERARCHY
ROOT Hips
{
	OFFSET 0.000000 0.000000 0.000000
	CHANNELS 6 Xposition Yposition Zposition Zrotation Yrotation Xrotation 
	JOINT LeftUpLeg_virtual
	{
		OFFSET 0.000000 0.000000 0.000000
		CHANNELS 3 Zrotation Yrotation Xrotation
		JOINT LeftUpLeg
		{
			OFFSET 8.479694 -4.795517 -0.379053
			CHANNELS 3 Zrotation Yrotation Xrotation
			JOINT LeftLeg
			{
				OFFSET 0.485052 -32.551468 0.112863
				CHANNELS 3 Zrotation Yrotation Xrotation
				JOINT LeftFoot
				{
					OFFSET 0.438033 -32.635670 -3.012641
					CHANNELS 3 Zrotation Yrotation Xrotation
					JOINT LeftToeBase
					{
						OFFSET 0.970169 -13.225353 11.864223
						CHANNELS 3 Zrotation Yrotation Xrotation
						End Site
						{
							OFFSET 0.000000 0.000000 0.000000
						}
					}
				}
			}
		}
	}
	JOINT RightUpLeg_virtual
	{
		OFFSET 0.000000 0.000000 0.000000
		CHANNELS 3 Zrotation Yrotation Xrotation
		JOINT RightUpLeg
		{
			OFFSET -8.479694 -4.795517 -0.379053
			CHANNELS 3 Zrotation Yrotation Xrotation
			JOINT RightLeg
			{
				OFFSET -0.484100 -32.551483 0.112903
				CHANNELS 3 Zrotation Yrotation Xrotation
				JOINT RightFoot
				{
					OFFSET -0.438985 -32.635651 -3.012681
					CHANNELS 3 Zrotation Yrotation Xrotation
					JOINT RightToeBase
					{
						OFFSET -0.970169 -13.225354 11.864223
						CHANNELS 3 Zrotation Yrotation Xrotation
						End Site
						{
							OFFSET 0.000000 0.000000 0.000000
						}
					}
				}
			}
		}
	}
	JOINT Spine_virtual
	{
		OFFSET 0.000000 0.000000 0.000000
		CHANNELS 3 Zrotation Yrotation Xrotation
		JOINT Spine
		{
			OFFSET 0.000000 7.722015 1.166203
			CHANNELS 3 Zrotation Yrotation Xrotation
			JOINT Spine1
			{
				OFFSET 0.000000 12.024086 0.248766
				CHANNELS 3 Zrotation Yrotation Xrotation
				JOINT Spine2
				{
					OFFSET -0.000000 11.503036 -0.491240
					CHANNELS 3 Zrotation Yrotation Xrotation
					JOINT Neck_virtual
					{
						OFFSET 0.000000 0.000000 0.000000
						CHANNELS 3 Zrotation Yrotation Xrotation
						JOINT Neck
						{
							OFFSET 0.000000 18.430687 -3.123054
							CHANNELS 3 Zrotation Yrotation Xrotation
							JOINT Head
							{
								OFFSET -0.000000 9.051071 1.034021
								CHANNELS 3 Zrotation Yrotation Xrotation
								End Site
								{
									OFFSET 0.000000 0.000000 0.000000
								}
							}
						}
					}
					JOINT LeftShoulder_virtual
					{
						OFFSET 0.000000 0.000000 0.000000
						CHANNELS 3 Zrotation Yrotation Xrotation
						JOINT LeftShoulder
						{
							OFFSET 6.197824 13.665230 -4.064723
							CHANNELS 3 Zrotation Yrotation Xrotation
							JOINT LeftArm
							{
								OFFSET 7.778132 -0.187073 -1.709282
								CHANNELS 3 Zrotation Yrotation Xrotation
								JOINT LeftForeArm
								{
									OFFSET 21.954697 0.000000 -2.041093
									CHANNELS 3 Zrotation Yrotation Xrotation
									JOINT LeftHand
									{
										OFFSET 22.992908 0.000000 -0.870901
										CHANNELS 3 Zrotation Yrotation Xrotation
										End Site
										{
											OFFSET 0.000000 0.000000 0.000000
										}
									}
								}
							}
						}
					}
					JOINT RightShoulder_virtual
					{
						OFFSET 0.000000 0.000000 0.000000
						CHANNELS 3 Zrotation Yrotation Xrotation
						JOINT RightShoulder
						{
							OFFSET -6.197824 13.665230 -4.064723
							CHANNELS 3 Zrotation Yrotation Xrotation
							JOINT RightArm
							{
								OFFSET -7.778132 -0.187073 -1.709282
								CHANNELS 3 Zrotation Yrotation Xrotation
								JOINT RightForeArm
								{
									OFFSET -21.954697 0.000000 -2.041093
									CHANNELS 3 Zrotation Yrotation Xrotation
									JOINT RightHand
									{
										OFFSET -22.992908 0.000000 -0.870901
										CHANNELS 3 Zrotation Yrotation Xrotation
										End Site
										{
											OFFSET 0.000000 0.000000 0.000000
										}
									}
								}
							}
						}
					}
				}
			}
		}
	}
}
MOTION
Frames: 11
Frame Time: 0.033333
-1.208680 80.894081 38.251789 -179.994677 3.897849 179.947208 -4.938779 0.095270 11.520315 -1.494546 1.633402 -21.472815 9.437128 6.422262 30.164403 1.239399 -7.397142 -13.519186 0.000000 0.000000 0.000000 -1.768066 -1.012404 11.611954 -2.535207 2.539313 -20.767247 -1.470148 3.767249 28.631991 8.176577 4.725253 -12.176311 0.000000 0.000000 0.000000 1.752366 1.857960 0.034845 -3.953787 0.567050 -1.050140 0.624991 -2.674676 3.595210 -0.024797 0.097420 0.002998 0.532520 -1.777866 4.561779 -1.550132 3.574079 -7.708583 0.000000 0.000000 0.000000 1.988337 -1.040973 1.833617 -1.460316 2.618194 -5.214879 -7.240245 -15.053192 -41.223996 0.737703 -27.783007 -0.374372 0.000000 0.000000 0.000000 -1.932365 0.208635 1.094102 20.409428 -7.960288 -10.977168 -2.496619 11.087733 -63.601738 2.776299 14.993952 2.501619 0.000000 0.000000 0.000000 
-1.210107 80.894974 38.263767 179.993858 3.890588 179.949038 -4.985615 0.206978 11.466183 -1.587759 1.925248 -21.546798 9.428185 6.644050 30.050244 1.289086 -7.348086 -13.407297 0.000000 0.000000 0.000000 -1.790043 -1.015933 11.636310 -2.557944 2.527809 -20.772120 -1.483605 3.813126 28.544819 8.124358 4.651621 -12.132824 0.000000 0.000000 0.000000 1.717068 1.941244 0.082040 -3.918664 0.612767 -1.085336 0.606976 -2.784873 3.573778 -0.016648 -0.041779 -0.002339 0.503912 -1.754833 4.551580 -1.538671 3.471792 -7.667614 0.000000 0.000000 0.000000 1.954021 -0.922097 1.778283 -1.434965 2.549467 -5.216028 -7.067440 -14.858595 -41.417389 0.771144 -27.762194 -0.373484 0.000000 0.000000 0.000000 -1.926546 0.247444 1.087851 20.604266 -7.952739 -10.993850 -2.369851 10.792637 -63.692204 2.761722 14.781842 2.520229 0.000000 0.000000 0.000000 
-1.206475 80.896507 38.249126 179.992150 4.050540 179.981113 -5.022764 0.333228 11.481060 -1.562974 1.897732 -21.553835 9.438262 6.681116 30.076564 1.306465 -7.372113 -13.398932 0.000000 0.000000 0.000000 -1.816252 -0.959112 11.645357 -2.554507 2.554775 -20.778996 -1.486637 3.816001 28.476901 8.202542 4.639811 -12.106336 0.000000 0.000000 0.000000 1.647033 2.008842 0.093832 -3.849349 0.644192 -1.133249 0.578136 -2.737937 3.553560 -0.019438 -0.021819 -0.029636 0.485672 -1.700425 4.570370 -1.507373 3.370515 -7.612738 0.000000 0.000000 0.000000 1.924413 -0.956228 1.771930 -1.382149 2.592576 -5.305085 -6.893791 -14.753349 -41.567203 0.804610 -27.841938 -0.252297 0.000000 0.000000 0.000000 -2.004066 0.360761 1.066391 20.877107 -8.039847 -10.890609 -2.328413 10.323547 -63.732748 2.689167 14.694660 2.517183 0.000000 0.000000 0.000000 
-1.182036 80.898415 38.209736 -179.990648 4.099739 179.947672 -5.062122 0.326304 11.487307 -1.486735 1.855812 -21.535870 9.463902 6.663975 30.097543 1.370716 -7.336386 -13.441562 0.000000 0.000000 0.000000 -1.816333 -0.977180 11.684985 -2.514402 2.478650 -20.725934 -1.486766 3.833627 28.380886 8.328759 4.648828 -12.102217 0.000000 0.000000 0.000000 1.572532 2.039313 0.158645 -3.747896 0.658627 -1.137445 0.537867 -2.698242 3.533994 -0.027609 -0.030269 -0.015020 0.421088 -1.672520 4.507009 -1.507657 3.193798 -7.513550 0.000000 0.000000 0.000000 1.878590 -0.925766 1.694681 -1.413721 2.494365 -5.136922 -6.562716 -14.556931 -41.740225 0.991247 -28.038656 -0.263744 0.000000 0.000000 0.000000 -2.038974 0.314263 1.044046 21.093427 -7.954189 -10.861898 -2.377769 9.911486 -63.831895 2.664648 14.684505 2.550821 0.000000 0.000000 0.000000 
-1.151792 80.896538 38.139843 -179.992478 4.184786 179.938205 -5.103078 0.334154 11.467141 -1.425397 1.799703 -21.495147 9.492328 6.648213 30.187046 1.432003 -7.288747 -13.496072 0.000000 0.000000 0.000000 -1.839986 -0.992171 11.692667 -2.461736 2.378253 -20.669609 -1.480744 3.843286 28.353177 8.493841 4.674289 -12.116782 0.000000 0.000000 0.000000 1.493881 2.050195 0.180884 -3.624358 0.704573 -1.132426 0.495135 -2.665636 3.543100 -0.037185 -0.040366 0.001512 0.358989 -1.594227 4.453754 -1.528930 3.117320 -7.430660 0.000000 0.000000 0.000000 1.839976 -0.857724 1.655850 -1.435197 2.406322 -5.140476 -6.434776 -14.369774 -41.879319 1.084300 -28.419200 -0.039526 0.000000 0.000000 0.000000 -2.115400 0.455635 1.017464 21.181740 -7.992049 -10.897166 -2.433894 9.664006 -63.788475 2.620988 14.778943 2.717787 0.000000 0.000000 0.000000 
-1.122650 80.894455 38.069546 -179.932113 4.223299 179.956934 -5.089928 0.254741 11.432756 -1.388000 1.803093 -21.422678 9.520723 6.687782 30.233023 1.457977 -7.253727 -13.532708 0.000000 0.000000 0.000000 -1.806631 -1.062512 11.666354 -2.452451 2.307948 -20.615616 -1.488271 3.874853 28.333952 8.638273 4.665815 -12.110755 0.000000 0.000000 0.000000 1.499340 1.957032 0.204042 -3.482804 0.752654 -1.167437 0.479293 -2.634245 3.530387 0.004668 -0.046468 -0.029873 0.254542 -1.583924 4.493198 -1.525388 2.942479 -7.322513 0.000000 0.000000 0.000000 1.719234 -0.787672 1.655361 -1.557320 2.295810 -5.064444 -6.438079 -14.003011 -41.920402 1.221436 -28.890935 0.142026 0.000000 0.000000 0.000000 -2.228231 0.481943 1.103943 21.212961 -7.784907 -10.562966 -2.628432 9.412209 -63.791378 2.543559 14.997859 2.770336 0.000000 0.000000 0.000000 
-1.078611 80.888718 38.003078 -179.978517 4.273638 179.940063 -5.102372 0.191668 11.413558 -1.387750 1.783804 -21.318588 9.551544 6.703100 30.253189 1.448153 -7.216238 -13.578767 0.000000 0.000000 0.000000 -1.816993 -1.150590 11.629720 -2.432482 2.177913 -20.563866 -1.485406 3.929879 28.384306 8.830408 4.695268 -12.155584 0.000000 0.000000 0.000000 1.502529 1.872460 0.184165 -3.403383 0.885114 -1.161600 0.392093 -2.549113 3.578352 -0.037487 -0.012491 -0.001025 0.232515 -1.482073 4.488249 -1.466785 2.745762 -7.195026 0.000000 0.000000 0.000000 1.650803 -0.785955 1.692702 -1.607201 2.134365 -5.024064 -6.606563 -13.568878 -42.126899 1.259283 -29.264878 0.456372 0.000000 0.000000 0.000000 -2.267365 0.452096 1.085101 21.195878 -7.836081 -10.410172 -2.705598 9.242665 -63.663626 2.499527 15.337058 2.943296 0.000000 0.000000 0.000000 
-1.024896 80.890442 37.942829 -179.984036 4.294113 179.974296 -5.103643 0.044819 11.373219 -1.385650 1.833096 -21.203149 9.583701 6.754037 30.237046 1.409913 -7.168334 -13.579263 0.000000 0.000000 0.000000 -1.789208 -1.272443 11.566522 -2.411986 2.037920 -20.508772 -1.472041 3.972512 28.403717 9.024510 4.716390 -12.149668 0.000000 0.000000 0.000000 1.514404 1.707062 0.105780 -3.314830 0.969077 -1.210281 0.345608 -2.521685 3.605730 -0.029931 -0.028346 -0.012818 0.157255 -1.455865 4.584505 -1.480716 2.608122 -7.042734 0.000000 0.000000 0.000000 1.586884 -0.733423 1.767569 -1.765152 1.995335 -4.852837 -6.784484 -12.896248 -42.377478 1.312701 -29.674214 0.725157 0.000000 0.000000 0.000000 -2.328989 0.494393 1.185060 21.138643 -7.793206 -10.193709 -2.624771 9.006240 -63.803413 2.587149 15.738622 2.863088 0.000000 0.000000 0.000000 
-0.956351 80.901161 37.913162 -179.980034 4.361874 179.985416 -5.078299 -0.041353 11.342004 -1.367212 1.881981 -21.098687 9.616122 6.834065 30.199162 1.317423 -7.146925 -13.534010 0.000000 0.000000 0.000000 -1.734074 -1.330317 11.478167 -2.405882 1.920647 -20.448601 -1.465303 4.003763 28.415658 9.192016 4.726509 -12.125299 0.000000 0.000000 0.000000 1.542269 1.591554 0.008543 -3.193260 1.107099 -1.247682 0.301458 -2.465445 3.626806 -0.027156 0.007283 0.019102 0.124813 -1.394427 4.691534 -1.464974 2.487677 -6.815537 0.000000 0.000000 0.000000 1.529112 -0.698513 1.872294 -1.814732 1.852391 -4.768574 -7.148685 -12.180059 -42.687791 1.170079 -30.121346 1.217879 0.000000 0.000000 0.000000 -2.392348 0.532282 1.223732 21.116995 -7.698009 -9.720879 -2.359233 8.766178 -63.800886 2.578836 16.365056 2.736655 0.000000 0.000000 0.000000 
-0.884028 80.923836 37.896770 -179.950541 4.305349 179.965731 -5.039018 -0.201879 11.302405 -1.331935 1.907024 -21.005617 9.647064 6.940579 30.185348 1.210881 -7.124460 -13.467793 0.000000 0.000000 0.000000 -1.688671 -1.487675 11.413845 -2.396741 1.829604 -20.369649 -1.466760 4.000291 28.439721 9.311076 4.718926 -12.061617 0.000000 0.000000 0.000000 1.538935 1.400293 -0.164977 -3.012210 1.170595 -1.245778 0.260940 -2.509416 3.752261 0.007433 -0.043367 -0.023726 0.033751 -1.401550 4.847626 -1.525830 2.314410 -6.634095 0.000000 0.000000 0.000000 1.458169 -0.644744 1.955354 -1.821309 1.753560 -4.478901 -7.856907 -11.515733 -42.429255 1.190404 -30.664483 1.539719 0.000000 0.000000 0.000000 -2.481085 0.615786 1.312640 21.027784 -7.472459 -9.168035 -1.752518 8.726426 -63.627570 2.509567 17.218956 2.548154 0.000000 0.000000 0.000000 
-0.823405 80.946625 37.899109 -179.946251 4.306177 179.954475 -5.041327 -0.253015 11.246520 -1.261161 1.931390 -20.963283 9.693458 7.009355 30.181725 1.063529 -7.148835 -13.409599 0.000000 0.000000 0.000000 -1.625479 -1.514167 11.313478 -2.394679 1.681458 -20.304225 -1.462792 4.006156 28.499955 9.397491 4.737208 -12.013668 0.000000 0.000000 0.000000 1.493973 1.324654 -0.377354 -2.783736 1.333464 -1.247524 0.168797 -2.492008 3.866487 0.020934 -0.025880 -0.007624 -0.059202 -1.441041 4.987872 -1.590827 2.402463 -6.431165 0.000000 0.000000 0.000000 1.344423 -0.636365 2.075801 -1.808858 1.494971 -4.208454 -9.006345 -11.187206 -41.571776 1.056993 -31.121344 1.957960 0.000000 0.000000 0.000000 -2.576398 0.550855 1.440589 20.972919 -7.202569 -8.658856 -0.882149 9.134348 -63.025229 2.437341 18.234156 2.337581 0.000000 0.000000 0.000000 
